<svg width="105" height="30" viewBox="0 0 105 30" fill="none" xmlns="http://www.w3.org/2000/svg">
<path d="M29.6233 0H34.0958V29.0611H29.6233V0Z" fill="url(#paint0_linear_17230_64613)"/>
<path fill-rule="evenodd" clip-rule="evenodd" d="M32.9779 1.11793H30.7412V27.9432H32.9779V1.11793ZM29.6233 0V29.0611H34.0958V0H29.6233Z" fill="url(#paint1_linear_17230_64613)"/>
<path fill-rule="evenodd" clip-rule="evenodd" d="M48.6297 24.5695C52.028 24.5695 54.7802 21.816 54.7802 18.4227C54.7802 15.0294 52.028 12.276 48.6297 12.276C45.2315 12.276 42.4793 15.0294 42.4793 18.4227C42.4793 21.816 45.2315 24.5695 48.6297 24.5695ZM48.6297 29.0412C54.4962 29.0412 59.2519 24.2872 59.2519 18.4227C59.2519 12.5583 54.4962 7.80424 48.6297 7.80424C42.7633 7.80424 38.0076 12.5583 38.0076 18.4227C38.0076 24.2872 42.7633 29.0412 48.6297 29.0412Z" fill="url(#paint2_linear_17230_64613)"/>
<path fill-rule="evenodd" clip-rule="evenodd" d="M70.414 29.9513L59.3538 7.78631H64.3505L70.4169 19.9436L76.4824 7.78814H81.4791L70.4198 29.9513V29.963L70.4169 29.9572L70.414 29.963V29.9513Z" fill="url(#paint3_linear_17230_64613)"/>
<path fill-rule="evenodd" clip-rule="evenodd" d="M64.3505 7.78631H59.3538L70.414 29.9513V29.963L70.4169 29.9572L70.4198 29.963V29.9513L81.4791 7.78814H76.4824L70.4169 19.9436L64.3505 7.78631ZM77.1739 8.90607L70.4169 22.4473L63.659 8.90424H61.161L70.4169 27.4534L79.6719 8.90607H77.1739Z" fill="url(#paint4_linear_17230_64613)"/>
<path fill-rule="evenodd" clip-rule="evenodd" d="M93.9205 30L82.9485 7.78631H87.9101L93.9176 19.949L99.9241 7.78814H104.886L93.9205 29.9883V30Z" fill="url(#paint5_linear_17230_64613)"/>
<path fill-rule="evenodd" clip-rule="evenodd" d="M87.9101 7.78631H82.9485L93.9205 30V29.9883L104.886 7.78814H99.9241L93.9176 19.949L87.9101 7.78631ZM100.619 8.90607L93.9176 22.4734L87.2154 8.90424H84.7476L93.9176 27.4698L103.087 8.90607H100.619Z" fill="url(#paint6_linear_17230_64613)"/>
<path fill-rule="evenodd" clip-rule="evenodd" d="M29.066 14.9206C29.0694 14.791 29.0711 14.661 29.0711 14.5306H24.5966V14.5359C24.5966 14.538 24.5966 14.54 24.5966 14.542H29.066V14.9206ZM24.8055 24.8135C22.1757 27.4381 18.5452 29.0611 14.5356 29.0611C6.50779 29.0611 0 22.5556 0 14.5306C0 6.50555 6.50779 0 14.5356 0C18.5496 0 22.1837 1.62654 24.8141 4.25626L21.6479 7.42139C19.8269 5.60173 17.3117 4.47631 14.5335 4.47631C8.97585 4.47631 4.47045 8.98015 4.47045 14.5359C4.47045 20.0917 8.97585 24.5955 14.5335 24.5955C17.31 24.5955 19.8239 23.4715 21.6446 21.6537L24.8055 24.8135Z" fill="url(#paint7_linear_17230_64613)"/>
<path fill-rule="evenodd" clip-rule="evenodd" d="M24.5966 14.5306L24.5966 14.542H29.066V14.9206C29.0693 14.7948 29.071 14.6686 29.0711 14.542C29.0711 14.5382 29.0711 14.5344 29.0711 14.5306H24.5966ZM24.8055 24.8135L21.6446 21.6537C19.8239 23.4715 17.31 24.5955 14.5335 24.5955C8.97585 24.5955 4.47045 20.0917 4.47045 14.5359C4.47045 8.98015 8.97585 4.47631 14.5335 4.47631C17.3117 4.47631 19.8269 5.60173 21.6479 7.42139L24.8141 4.25626C24.5504 3.99259 24.2765 3.73901 23.9932 3.49613C21.4511 1.31672 18.1472 0 14.5356 0C6.50779 0 0 6.50555 0 14.5306C0 22.5556 6.50779 29.0611 14.5356 29.0611C18.1427 29.0611 21.443 27.7476 23.9839 25.573C24.2674 25.3303 24.5415 25.077 24.8055 24.8135ZM23.1907 24.78C20.8537 26.7543 17.8344 27.9432 14.5356 27.9432C7.12484 27.9432 1.11793 21.9378 1.11793 14.5306C1.11793 7.12333 7.12484 1.11793 14.5356 1.11793C17.8388 1.11793 20.8618 2.30996 23.2001 4.28901L21.6084 5.8802C19.6816 4.30476 17.2173 3.35838 14.5335 3.35838C8.35879 3.35838 3.35252 8.36238 3.35252 14.5359C3.35252 20.7095 8.35879 25.7135 14.5335 25.7135C17.2156 25.7135 19.6785 24.7683 21.6047 23.1946L23.1907 24.78Z" fill="url(#paint8_linear_17230_64613)"/>
<path d="M20.3485 14.5421H24.8209V24.8141H20.3485V14.5421Z" fill="url(#paint9_linear_17230_64613)"/>
<path fill-rule="evenodd" clip-rule="evenodd" d="M23.703 15.6601H21.4664V23.6962H23.703V15.6601ZM20.3485 14.5421V24.8141H24.8209V14.5421H20.3485Z" fill="url(#paint10_linear_17230_64613)"/>
<path d="M14.5304 12.8665H24.8171V17.3374H14.5304V12.8665Z" fill="url(#paint11_linear_17230_64613)"/>
<path fill-rule="evenodd" clip-rule="evenodd" d="M23.6992 13.9844H15.6484V16.2195H23.6992V13.9844ZM14.5304 12.8665V17.3374H24.8171V12.8665H14.5304Z" fill="url(#paint12_linear_17230_64613)"/>
<defs>
<linearGradient id="paint0_linear_17230_64613" x1="0" y1="15" x2="104.886" y2="15" gradientUnits="userSpaceOnUse">
<stop stop-color="#FA7035"/>
<stop offset="1" stop-color="#FF0099"/>
</linearGradient>
<linearGradient id="paint1_linear_17230_64613" x1="0" y1="15" x2="104.886" y2="15" gradientUnits="userSpaceOnUse">
<stop stop-color="#FA7035"/>
<stop offset="1" stop-color="#FF0099"/>
</linearGradient>
<linearGradient id="paint2_linear_17230_64613" x1="0" y1="15" x2="104.886" y2="15" gradientUnits="userSpaceOnUse">
<stop stop-color="#FA7035"/>
<stop offset="1" stop-color="#FF0099"/>
</linearGradient>
<linearGradient id="paint3_linear_17230_64613" x1="0" y1="15" x2="104.886" y2="15" gradientUnits="userSpaceOnUse">
<stop stop-color="#FA7035"/>
<stop offset="1" stop-color="#FF0099"/>
</linearGradient>
<linearGradient id="paint4_linear_17230_64613" x1="0" y1="15" x2="104.886" y2="15" gradientUnits="userSpaceOnUse">
<stop stop-color="#FA7035"/>
<stop offset="1" stop-color="#FF0099"/>
</linearGradient>
<linearGradient id="paint5_linear_17230_64613" x1="0" y1="15" x2="104.886" y2="15" gradientUnits="userSpaceOnUse">
<stop stop-color="#FA7035"/>
<stop offset="1" stop-color="#FF0099"/>
</linearGradient>
<linearGradient id="paint6_linear_17230_64613" x1="0" y1="15" x2="104.886" y2="15" gradientUnits="userSpaceOnUse">
<stop stop-color="#FA7035"/>
<stop offset="1" stop-color="#FF0099"/>
</linearGradient>
<linearGradient id="paint7_linear_17230_64613" x1="0" y1="15" x2="104.886" y2="15" gradientUnits="userSpaceOnUse">
<stop stop-color="#FA7035"/>
<stop offset="1" stop-color="#FF0099"/>
</linearGradient>
<linearGradient id="paint8_linear_17230_64613" x1="0" y1="15" x2="104.886" y2="15" gradientUnits="userSpaceOnUse">
<stop stop-color="#FA7035"/>
<stop offset="1" stop-color="#FF0099"/>
</linearGradient>
<linearGradient id="paint9_linear_17230_64613" x1="0" y1="15" x2="104.886" y2="15" gradientUnits="userSpaceOnUse">
<stop stop-color="#FA7035"/>
<stop offset="1" stop-color="#FF0099"/>
</linearGradient>
<linearGradient id="paint10_linear_17230_64613" x1="0" y1="15" x2="104.886" y2="15" gradientUnits="userSpaceOnUse">
<stop stop-color="#FA7035"/>
<stop offset="1" stop-color="#FF0099"/>
</linearGradient>
<linearGradient id="paint11_linear_17230_64613" x1="0" y1="15" x2="104.886" y2="15" gradientUnits="userSpaceOnUse">
<stop stop-color="#FA7035"/>
<stop offset="1" stop-color="#FF0099"/>
</linearGradient>
<linearGradient id="paint12_linear_17230_64613" x1="0" y1="15" x2="104.886" y2="15" gradientUnits="userSpaceOnUse">
<stop stop-color="#FA7035"/>
<stop offset="1" stop-color="#FF0099"/>
</linearGradient>
</defs>
</svg>
